<?xml version="1.0" encoding="UTF-8" standalone="no"?>
<svg xmlns="http://www.w3.org/2000/svg" version="1.1" xmlns:xlink="http://www.w3.org/1999/xlink" xmlns:svgjs="http://svgjs.dev/svgjs" width="2000" height="873" viewBox="0 0 2000 873"><g transform="matrix(1,0,0,1,-1.2112696095522324,-0.06734992229382897)"><svg viewBox="0 0 396 173" data-background-color="#edffde" preserveAspectRatio="xMidYMid meet" height="873" width="2000" xmlns="http://www.w3.org/2000/svg" xmlns:xlink="http://www.w3.org/1999/xlink"><g id="tight-bounds" transform="matrix(1,0,0,1,0.24008861730862918,0.013401342287650664)"><svg viewBox="0 0 395.52 172.9732521095373" height="172.9732521095373" width="395.52"><g><svg viewBox="0 0 395.52 172.9732521095373" height="172.9732521095373" width="395.52"><g><svg viewBox="0 0 395.52 172.9732521095373" height="172.9732521095373" width="395.52"><g id="textblocktransform"><svg viewBox="0 0 395.52 172.9732521095373" height="172.9732521095373" width="395.52" id="textblock"><g><svg viewBox="0 0 395.52 172.9732521095373" height="172.9732521095373" width="395.52"><path d="M394.594 37.099C392.735 19.145 387.435 14.154 387.435 14.154 371.165-4.34 350.86-0.354 332.619 2.304 300.414 2.411 268.339 6.361 236.208 8.48 168.767 8.803 100.749 3.489 33.643 16.595 27.339 20.617-6.54 17.385 1.121 39.398 3.129 48.554 10.456 58.717 10.232 67.119 11.236 68.592 12.631 65.216 13.226 67.335 15.309 73.044 18.711 70.351 21.501 73.727 17.614 82.74 20.403 90.245 23.062 98.109 18.377 100.156 12.371 99.186 9.675 105.973 9.396 110.893 7.89 109.959 6.235 109.744 5.026 109.6 2.59 110.139 2.999 111.683 4.394 116.961-1.594 120.014 2.162 125.185-0.422 130.786 3.948 135.634 3.353 141.703 3.278 142.924 3.687 143.965 4.338 144.252 7.22 145.796 3.018 148.813 3.464 152.08 33.029 174.416 65.104 158.975 95.394 169.245 103.259 162.063 97.346 171.795 100.489 170.286 102.943 168.527 104.728 175.816 107.499 171.687 107.927 170.502 107.276 167.701 108.8 168.24 109.6 168.527 110.307 168.455 110.418 166.803 110.586 164.325 109.117 165.87 108.726 164.577 112.947 158.041 111.906 173.59 115.866 172.944 115.68 171.04 114.528 168.311 116.889 168.67 119.232 165.941 119.306 163.679 121.389 169.82 121.463 171.148 121.835 172.082 122.43 172.728 128.938 166.049 135.409 175.098 142.233 172.082 146.417 168.778 150.433 173.877 154.672 172.62 156.16 171.615 157.666 169.82 159.098 172.836 176.632 173.482 195.319 170.789 211.943 172.944 256.364 168.922 303.836 174.595 350.674 169.281 361.719 167.234 373.192 164.325 383.958 161.991 383.958 161.991 392.679 155.6 392.679 126.872S394.538 101.736 394.817 78.862C395.096 55.988 396.398 55.054 394.538 37.099Z" opacity="1" fill="#77e4c8" data-fill-palette-color="tertiary"></path><g transform="matrix(1,0,0,1,55.76832,26.230666666666668)"><svg width="283.98335999999995" viewBox="5 -36.75 88.25 37.45" height="120.51191877620396" data-palette-color="#000000"><path d="M9.65-13.55L9.65 0Q8.45 0.35 7.3 0.35L7.3 0.35Q6.05 0.35 5 0L5 0 5-36.1 16.25-36.1Q22.65-36.1 26.03-33.25 29.4-30.4 29.4-25.3L29.4-25.3Q29.4-19.75 25.73-16.65 22.05-13.55 15.8-13.55L15.8-13.55 9.65-13.55ZM16.25-31.8L16.25-31.8 9.65-31.8 9.65-17.8 15.35-17.8Q19.9-17.8 22.25-19.65 24.6-21.5 24.6-25.15L24.6-25.15Q24.6-31.8 16.25-31.8ZM39.7 0.35L39.7 0.35Q38.6 0.35 37.4 0L37.4 0 37.4-36.1Q38.45-36.45 39.7-36.45L39.7-36.45Q40.85-36.45 42.05-36.1L42.05-36.1 42.05-16.7 59.05-36.75Q60.2-36.55 61.17-35.75 62.15-34.95 62.5-33.8L62.5-33.8 51.05-20.45 65.65-2.3Q65.45-1.25 64.4-0.35 63.35 0.55 62.1 0.7L62.1 0.7 48.05-17 42.05-9.95 42.05 0Q41 0.35 39.7 0.35ZM81.2 0.65L81.2 0.65Q76.35 0.6 73.3-1.53 70.25-3.65 69.25-7.2L69.25-7.2Q69.8-8.15 71.02-8.72 72.25-9.3 73.35-9.2L73.35-9.2Q74.25-6.5 76.35-5.1 78.45-3.7 81.45-3.75L81.45-3.75Q84.65-3.8 86.6-5.43 88.55-7.05 88.55-9.85L88.55-9.85Q88.55-14.1 84.1-15.35L84.1-15.35 77.45-17.2Q73.95-18.2 71.95-20.63 69.95-23.05 69.95-26.4L69.95-26.4Q69.95-29.4 71.47-31.75 73-34.1 75.67-35.43 78.35-36.75 81.8-36.75L81.8-36.75Q85.65-36.75 88.72-35.13 91.8-33.5 93.05-30.85L93.05-30.85Q92.6-30.05 91.57-29.28 90.55-28.5 89.35-28.1L89.35-28.1Q86.9-32.35 81.65-32.35L81.65-32.35Q78.55-32.35 76.6-30.78 74.65-29.2 74.65-26.7L74.65-26.7Q74.65-22.7 79.8-21.25L79.8-21.25 85.7-19.65Q89.25-18.7 91.25-16.13 93.25-13.55 93.25-9.9L93.25-9.9Q93.25-6.7 91.67-4.3 90.1-1.9 87.37-0.63 84.65 0.65 81.2 0.65Z" opacity="1" transform="matrix(1,0,0,1,0,0)" fill="#000000" class="wordmark-text-0" data-fill-palette-color="quaternary" id="text-0"></path></svg></g></svg></g></svg></g></svg></g><g></g></svg></g><defs></defs></svg><rect width="395.52" height="172.9732521095373" fill="none" stroke="none" visibility="hidden"></rect></g></svg></g></svg>
